<svg width="27" height="27" viewBox="0 0 27 27" fill="none" xmlns="http://www.w3.org/2000/svg">
<path d="M18.1157 8.69568V6.55802C18.1157 5.8919 17.9845 5.2323 17.7296 4.61689C17.4747 4.00147 17.101 3.44229 16.63 2.97127C16.159 2.50026 15.5998 2.12662 14.9844 1.87171C14.369 1.6168 13.7094 1.4856 13.0433 1.4856C12.3772 1.4856 11.7176 1.6168 11.1021 1.87171C10.4867 2.12662 9.92756 2.50026 9.45654 2.97127C8.98552 3.44229 8.61189 4.00147 8.35698 4.61689C8.10206 5.2323 7.97086 5.8919 7.97086 6.55802V11.6304C7.97086 11.8226 8.0472 12.0069 8.1831 12.1428C8.31899 12.2787 8.50331 12.3551 8.69549 12.3551C8.88768 12.3551 9.07199 12.2787 9.20788 12.1428C9.34378 12.0069 9.42012 11.8226 9.42012 11.6304V10.1449H15.2172V8.69568H9.42012V6.55802C9.42012 5.5971 9.80185 4.67553 10.4813 3.99606C11.1608 3.31658 12.0824 2.93486 13.0433 2.93486C14.0042 2.93486 14.9258 3.31658 15.6052 3.99606C16.2847 4.67553 16.6664 5.5971 16.6664 6.55802V11.5942C16.6664 11.7864 16.7428 11.9707 16.8787 12.1066C17.0146 12.2425 17.1989 12.3188 17.3911 12.3188C17.5833 12.3188 17.7676 12.2425 17.9035 12.1066C18.0394 11.9707 18.1157 11.7864 18.1157 11.5942V10.1449H21.7389V23.1883H4.3477V10.1449H6.5216V8.69568H2.89844V23.2535C2.89844 23.6206 3.04426 23.9726 3.30382 24.2322C3.56337 24.4918 3.91541 24.6376 4.28248 24.6376H21.8041C22.1712 24.6376 22.5232 24.4918 22.7827 24.2322C23.0423 23.9726 23.1881 23.6206 23.1881 23.2535V8.69568H18.1157Z" fill="#292D32"/>
</svg>
