<svg xmlns="http://www.w3.org/2000/svg" viewBox="0 0 24 21"><defs><style>.cls-1{fill:#2c2c2c;}</style></defs><g id="Слой_2" data-name="Слой 2"><g id="Слой_1-2" data-name="Слой 1"><path class="cls-1" d="M21.24,1.25A5.87,5.87,0,0,0,16.89.05a6.11,6.11,0,0,0-4.38,2.77c-.18.27-.33.57-.51.87l-.13-.22a6.36,6.36,0,0,0-1.57-2A5.86,5.86,0,0,0,6,0,6.34,6.34,0,0,0,1.75,2.15,6.73,6.73,0,0,0,.08,7.84a9.81,9.81,0,0,0,1.15,3.35A22.13,22.13,0,0,0,4.44,15.6,46,46,0,0,0,8.9,19.86a4.79,4.79,0,0,0,6.17,0,43,43,0,0,0,4.86-4.68,21.18,21.18,0,0,0,2.9-4.13A9.15,9.15,0,0,0,24,6.85,6.54,6.54,0,0,0,21.24,1.25Zm0,9.65a21.61,21.61,0,0,1-2.82,3.78,43.94,43.94,0,0,1-4.24,4.06,3.37,3.37,0,0,1-4.39,0A38.86,38.86,0,0,1,4.6,13.58,17.4,17.4,0,0,1,2.27,10a7.76,7.76,0,0,1-.81-2.62,5.29,5.29,0,0,1,4-5.87,4,4,0,0,1,2.68.31A5.14,5.14,0,0,1,11.25,6a5.19,5.19,0,0,1,0,.88.71.71,0,1,0,1.42,0,5.17,5.17,0,0,1,2-4.37A4.8,4.8,0,0,1,17.6,1.43a3.79,3.79,0,0,1,1.62.33,5.17,5.17,0,0,1,3.3,4.1,8.47,8.47,0,0,1,.07.88A8.33,8.33,0,0,1,21.28,10.9Z"/></g></g></svg>