<svg width="27" height="40" viewBox="0 0 27 40" fill="none" xmlns="http://www.w3.org/2000/svg">
<path fill-rule="evenodd" clip-rule="evenodd" d="M24 13V26.5C24 32.299 19.299 37 13.5 37C7.70101 37 3 32.299 3 26.5V13C3 7.20101 7.70101 2.5 13.5 2.5C19.299 2.5 24 7.20101 24 13ZM1 13C1 6.09644 6.59644 0.5 13.5 0.5C20.4036 0.5 26 6.09644 26 13V26.5C26 33.4036 20.4036 39 13.5 39C6.59644 39 1 33.4036 1 26.5V13ZM12.5 20.5V29.5L14.5 29.5V20.5H12.5Z" fill="#33A9FF"/>
<path d="M12.5 29.5H12V30L12.5 30L12.5 29.5ZM12.5 20.5V20H12V20.5H12.5ZM14.5 29.5L14.5 30L15 30V29.5H14.5ZM14.5 20.5H15V20H14.5V20.5ZM24.5 26.5V13H23.5V26.5H24.5ZM13.5 37.5C19.5751 37.5 24.5 32.5751 24.5 26.5H23.5C23.5 32.0228 19.0228 36.5 13.5 36.5V37.5ZM2.5 26.5C2.5 32.5751 7.42487 37.5 13.5 37.5V36.5C7.97715 36.5 3.5 32.0228 3.5 26.5H2.5ZM2.5 13V26.5H3.5V13H2.5ZM13.5 2C7.42487 2 2.5 6.92487 2.5 13H3.5C3.5 7.47715 7.97715 3 13.5 3V2ZM24.5 13C24.5 6.92487 19.5751 2 13.5 2V3C19.0228 3 23.5 7.47715 23.5 13H24.5ZM13.5 0C6.3203 0 0.5 5.8203 0.5 13H1.5C1.5 6.37258 6.87258 1 13.5 1V0ZM26.5 13C26.5 5.8203 20.6797 0 13.5 0V1C20.1274 1 25.5 6.37258 25.5 13H26.5ZM26.5 26.5V13H25.5V26.5H26.5ZM13.5 39.5C20.6797 39.5 26.5 33.6797 26.5 26.5H25.5C25.5 33.1274 20.1274 38.5 13.5 38.5V39.5ZM0.5 26.5C0.5 33.6797 6.3203 39.5 13.5 39.5V38.5C6.87258 38.5 1.5 33.1274 1.5 26.5H0.5ZM0.5 13V26.5H1.5V13H0.5ZM13 29.5V20.5H12V29.5H13ZM14.5 29L12.5 29L12.5 30L14.5 30L14.5 29ZM14 20.5V29.5H15V20.5H14ZM12.5 21H14.5V20H12.5V21Z" fill="black"/>
</svg>
